<svg width="100" height="100" viewBox="0 0 100 100" fill="none" xmlns="http://www.w3.org/2000/svg">
<rect width="100" height="100" fill="black"/>
<path d="M51.0276 1C71.1409 1 85.1084 7.68182 89.5781 11.0227C90.3232 20.6742 94.0231 41.0909 86.2019 62.8068C78.3807 84.5227 51.0276 99 51.0276 99C51.0276 99 24.7459 82.8523 16.3647 62.8068C7.98353 42.7614 10.2422 23.8295 10.8009 11.0227C15.8293 7.68182 30.9143 1 51.0276 1Z" fill="#2D2B25"/>
<path d="M42.9167 30.3765L51.3233 16L59.7299 30.3765L77.1035 33.1412L65.1035 45.3059L68.1035 63L51.3233 55.2588L35.0705 63L37.3123 45.3059L26.1035 33.1412L42.9167 30.3765Z" fill="white"/>
</svg>
