<svg xmlns="http://www.w3.org/2000/svg" width="100" height="100" fill="none"><path fill="#000" d="M0 0h100v100H0z"/><path fill="#2D2B25" d="M51.028 1c20.113 0 34.08 6.682 38.55 10.023.745 9.651 4.445 30.068-3.376 51.784C78.38 84.523 51.028 99 51.028 99S24.746 82.852 16.365 62.807C7.984 42.76 10.242 23.83 10.8 11.023 15.829 7.682 30.914 1 51.028 1Z"/><path fill="#fff" d="M42.917 30.377 51.323 16l8.407 14.377 17.373 2.764-12 12.165 3 17.694-16.78-7.741L35.071 63l2.241-17.694L26.104 33.14l16.813-2.764Z"/></svg>